HIERARCHY
ROOT Root
{
	OFFSET 0.00000 0.00000 0.00000
	CHANNELS 6 Xposition Yposition Zposition Zrotation Xrotation Yrotation
	JOINT Hips
	{
		OFFSET 0 0 0	
		CHANNELS 3 Zrotation Xrotation Yrotation
		JOINT Spine
		{
			OFFSET 0 4 0	
			CHANNELS 3 Zrotation Xrotation Yrotation
			JOINT Spine1
			{
				OFFSET 0 19.4 0	
				CHANNELS 3 Zrotation Xrotation Yrotation
				JOINT Spine2
				{
					OFFSET 0 16.6 0	
					CHANNELS 3 Zrotation Xrotation Yrotation
					JOINT LeftCollar
					{
						OFFSET 0 10 0	
						CHANNELS 3 Zrotation Xrotation Yrotation
						JOINT LeftArm
						{
							OFFSET 15.6 -2 3	
							CHANNELS 3 Zrotation Xrotation Yrotation
							JOINT LeftForeArm
							{
								OFFSET 3.5 -27 -1	
								CHANNELS 3 Zrotation Xrotation Yrotation
								JOINT LeftHand
								{
									OFFSET 1 -27 1	
									CHANNELS 3 Zrotation Xrotation Yrotation
									End Site
									{
										OFFSET 0 -15 0
									}
								}
							}
						}
					}
					JOINT RightCollar
					{
						OFFSET 0 10 0	
						CHANNELS 3 Zrotation Xrotation Yrotation
						JOINT RightArm
						{
							OFFSET -15.6 -2 3	
							CHANNELS 3 Zrotation Xrotation Yrotation
							JOINT RightForeArm
							{
								OFFSET -3.5 -27 -1	
								CHANNELS 3 Zrotation Xrotation Yrotation
								JOINT RightHand
								{
									OFFSET -1 -27 1	
									CHANNELS 3 Zrotation Xrotation Yrotation
									End Site
									{
										OFFSET 0 -15 0
									}
								}
							}
						}
					}
					JOINT Neck
					{
						OFFSET 0 10 0	
						CHANNELS 3 Zrotation Xrotation Yrotation
						JOINT Head
						{
							OFFSET 0 12.7 3	
							CHANNELS 3 Zrotation Xrotation Yrotation
							End Site
							{
								OFFSET 0 12.7 3
							}
						}
					}
				}
			}
		}
	}
	JOINT LeftHip
	{
		OFFSET 0 0 0	
		CHANNELS 3 Zrotation Xrotation Yrotation
		JOINT LeftUpLeg
		{
			OFFSET 8.8 -6 0	
			CHANNELS 3 Zrotation Xrotation Yrotation
			JOINT LeftLeg
			{
				OFFSET 0 -39 2	
				CHANNELS 3 Zrotation Xrotation Yrotation
				JOINT LeftFoot
				{
					OFFSET 0 -43 -2	
					CHANNELS 3 Zrotation Xrotation Yrotation
					JOINT LeftFootFront
					{
						OFFSET 0 -7 8.5	
						CHANNELS 3 Zrotation Xrotation Yrotation
						End Site
						{
							OFFSET 0 -0.5 9
						}
					}
				}
				JOINT LeftHeel
				{
					OFFSET 0 -43 -2	
					CHANNELS 3 Zrotation Xrotation Yrotation
					End Site
					{
						OFFSET 0 -7.5 -5
					}
				}
			}
		}
	}
	JOINT RightHip
	{
		OFFSET 0 0 0	
		CHANNELS 3 Zrotation Xrotation Yrotation
		JOINT RightUpLeg
		{
			OFFSET -8.8 -6 0	
			CHANNELS 3 Zrotation Xrotation Yrotation
			JOINT RightLeg
			{
				OFFSET 0 -39 2	
				CHANNELS 3 Zrotation Xrotation Yrotation
				JOINT RightFoot
				{
					OFFSET 0 -43 -2	
					CHANNELS 3 Zrotation Xrotation Yrotation
					JOINT RightFootFront
					{
						OFFSET 0 -7 8.5	
						CHANNELS 3 Zrotation Xrotation Yrotation
						End Site
						{
							OFFSET 0 -0.5 9
						}
					}
				}
				JOINT RightHeel
				{
					OFFSET 0 -43 -2	
					CHANNELS 3 Zrotation Xrotation Yrotation
					End Site
					{
						OFFSET 0 -7.5 -5
					}
				}
			}
		}
	}
}
MOTION
Frames: 21
Frame Time: 0.05
0 95.5 0 -0 0 -0 -0 0 -0 -0 0 -0 -6.6599 16.243 42.782 -0 0 -0 -0 0 -0 -39.109 -63.764 -82.739 16.437 -47.528 46.882 -0 0 -0 -0 0 -0 -15.949 -33.409 15.086 -67.054 -85.359 -120.6 -0 0 -0 -6.2483 -14.929 -9.2132 -6.2483 -14.929 -9.2132 -0 0 -0 -0 0 -0 -0 0 -0 -0 0 -0 -0 0 -0 -0 0 -0 -0 0 -0 -0 0 -0 -0 0 -0 -0 0 -0 -0 0 -0 -0 0 -0 
0 95.5 0 -0 0 -0 -0 0 -0 -0 0 -0 -6.9776 16.005 42.307 -0 0 -0 -0 0 -0 -40.366 -64.19 -84.765 16.267 -47.024 46.322 -0 0 -0 -0 0 -0 -15.709 -33.466 13.542 -69.012 -86.832 -122 -0 0 -0 -5.6289 -14.569 -9.6725 -5.6289 -14.569 -9.6725 -0 0 -0 -0 0 -0 -0 0 -0 -0 0 -0 -0 0 -0 -0 0 -0 -0 0 -0 -0 0 -0 -0 0 -0 -0 0 -0 -0 0 -0 -0 0 -0 
0 95.5 0 -0 0 -0 -0 0 -0 -0 0 -0 -7.0957 15.967 41.815 -0 0 -0 -0 0 -0 -41.654 -64.874 -86.964 16.289 -46.946 45.54 -0 0 -0 -0 0 -0 -16.256 -33.076 11.209 -77.827 -88.622 -130.06 -0 0 -0 -5.4443 -14.602 -10.02 -5.4443 -14.602 -10.02 -0 0 -0 -0 0 -0 -0 0 -0 -0 0 -0 -0 0 -0 -0 0 -0 -0 0 -0 -0 0 -0 -0 0 -0 -0 0 -0 -0 0 -0 -0 0 -0 
0 95.5 0 -0 0 -0 -0 0 -0 -0 0 -0 -7.0192 15.566 41.349 -0 0 -0 -0 0 -0 -42.787 -65.11 -88.465 15.649 -47.25 43.918 -0 0 -0 -0 0 -0 -17.191 -32.089 8.4255 76.763 -89.885 25.958 -0 0 -0 -5.3596 -14.791 -10.264 -5.3596 -14.791 -10.263 -0 0 -0 -0 0 -0 -0 0 -0 -0 0 -0 -0 0 -0 -0 0 -0 -0 0 -0 -0 0 -0 -0 0 -0 -0 0 -0 -0 0 -0 -0 0 -0 
0 95.5 0 -0 0 -0 -0 0 -0 -0 0 -0 -6.6464 14.992 40.751 -0 0 -0 -0 0 -0 -44.043 -65.095 -89.745 14.829 -47.358 42.086 -0 0 -0 -0 0 -0 -18.581 -31.009 5.2294 73.581 -88.201 24.226 -0 0 -0 -5.3049 -14.951 -10.326 -5.3049 -14.951 -10.326 -0 0 -0 -0 0 -0 -0 0 -0 -0 0 -0 -0 0 -0 -0 0 -0 -0 0 -0 -0 0 -0 -0 0 -0 -0 0 -0 -0 0 -0 -0 0 -0 
0 95.5 0 -0 0 -0 -0 0 -0 -0 0 -0 -6.1827 14.807 39.98 -0 0 -0 -0 0 -0 -46.004 -65.536 -92.117 14.34 -47.007 41.371 -0 0 -0 -0 0 -0 -20.351 -30.335 1.7914 68.898 -86.365 20.239 -0 0 -0 -5.2722 -15.197 -10.229 -5.2722 -15.197 -10.229 -0 0 -0 -0 0 -0 -0 0 -0 -0 0 -0 -0 0 -0 -0 0 -0 -0 0 -0 -0 0 -0 -0 0 -0 -0 0 -0 -0 0 -0 -0 0 -0 
0 95.5 0 -0 0 -0 -0 0 -0 -0 0 -0 -5.6832 14.843 39.182 -0 0 -0 -0 0 -0 -48.537 -66.278 -95.609 13.923 -46.168 41.19 -0 0 -0 -0 0 -0 -22.171 -29.674 -1.6668 67.633 -85.325 19.058 -0 0 -0 -5.173 -15.413 -10.097 -5.173 -15.413 -10.097 -0 0 -0 -0 0 -0 -0 0 -0 -0 0 -0 -0 0 -0 -0 0 -0 -0 0 -0 -0 0 -0 -0 0 -0 -0 0 -0 -0 0 -0 -0 0 -0 
0 95.5 0 -0 0 -0 -0 0 -0 -0 0 -0 -4.9384 14.437 38.356 -0 0 -0 -0 0 -0 -50.17 -66.664 -98.272 13.096 -45.231 40.266 -0 0 -0 -0 0 -0 -23.526 -28.256 -4.8403 69.231 -85.124 20.438 -0 0 -0 -4.9184 -15.333 -9.889 -4.9184 -15.333 -9.8891 -0 0 -0 -0 0 -0 -0 0 -0 -0 0 -0 -0 0 -0 -0 0 -0 -0 0 -0 -0 0 -0 -0 0 -0 -0 0 -0 -0 0 -0 -0 0 -0 
0 95.5 0 -0 0 -0 -0 0 -0 -0 0 -0 -4.2878 13.784 37.488 -0 0 -0 -0 0 -0 -50.847 -66.965 -99.986 11.811 -44.665 38.654 -0 0 -0 -0 0 -0 -24.363 -26.393 -7.6896 73.892 -84.927 24.143 -0 0 -0 -4.5564 -15.185 -9.5067 -4.5564 -15.185 -9.5067 -0 0 -0 -0 0 -0 -0 0 -0 -0 0 -0 -0 0 -0 -0 0 -0 -0 0 -0 -0 0 -0 -0 0 -0 -0 0 -0 -0 0 -0 -0 0 -0 
0 95.5 0 -0 0 -0 -0 0 -0 -0 0 -0 -3.7251 13.214 36.591 -0 0 -0 -0 0 -0 -51.664 -67.338 -101.64 9.7488 -44.381 36.846 -0 0 -0 -0 0 -0 -25.23 -24.598 -10.383 77.345 -84.473 27.013 -0 0 -0 -4.2574 -15.047 -9.0548 -4.2574 -15.047 -9.0547 -0 0 -0 -0 0 -0 -0 0 -0 -0 0 -0 -0 0 -0 -0 0 -0 -0 0 -0 -0 0 -0 -0 0 -0 -0 0 -0 -0 0 -0 -0 0 -0 
0 95.5 0 -0 0 -0 -0 0 -0 -0 0 -0 -3.1914 12.482 35.633 -0 0 -0 -0 0 -0 -51.672 -67.404 -102.1 6.7066 -44.57 34.123 -0 0 -0 -0 0 -0 -26.137 -22.945 -12.669 77.7 -83.702 26.825 -0 0 -0 -3.9726 -14.796 -8.6104 -3.9726 -14.796 -8.6104 -0 0 -0 -0 0 -0 -0 0 -0 -0 0 -0 -0 0 -0 -0 0 -0 -0 0 -0 -0 0 -0 -0 0 -0 -0 0 -0 -0 0 -0 -0 0 -0 
0 95.5 0 -0 0 -0 -0 0 -0 -0 0 -0 -2.7528 11.612 34.6 -0 0 -0 -0 0 -0 -50.054 -67.01 -100.54 2.5753 -45.557 29.58 -0 0 -0 -0 0 -0 -26.956 -21.458 -14.36 76.651 -82.946 25.066 -0 0 -0 -3.6872 -14.505 -8.1359 -3.6872 -14.505 -8.1359 -0 0 -0 -0 0 -0 -0 0 -0 -0 0 -0 -0 0 -0 -0 0 -0 -0 0 -0 -0 0 -0 -0 0 -0 -0 0 -0 -0 0 -0 -0 0 -0 
0 95.5 0 -0 0 -0 -0 0 -0 -0 0 -0 -2.4926 10.739 33.76 -0 0 -0 -0 0 -0 -46.939 -65.982 -97.718 -2.6398 -47.62 23.334 -0 0 -0 -0 0 -0 -27.926 -20.055 -16.076 76.203 -82.269 24.083 -0 0 -0 -3.4447 -14.307 -7.7469 -3.4447 -14.307 -7.7469 -0 0 -0 -0 0 -0 -0 0 -0 -0 0 -0 -0 0 -0 -0 0 -0 -0 0 -0 -0 0 -0 -0 0 -0 -0 0 -0 -0 0 -0 -0 0 -0 
0 95.5 0 -0 0 -0 -0 0 -0 -0 0 -0 -2.6009 10.171 33.272 -0 0 -0 -0 0 -0 -42.754 -64.819 -94.605 -9.6516 -50.857 14.673 -0 0 -0 -0 0 -0 -29.386 -19.183 -18.908 74.721 -80.298 22.232 -0 0 -0 -3.2336 -14.525 -7.4669 -3.2336 -14.525 -7.4669 -0 0 -0 -0 0 -0 -0 0 -0 -0 0 -0 -0 0 -0 -0 0 -0 -0 0 -0 -0 0 -0 -0 0 -0 -0 0 -0 -0 0 -0 -0 0 -0 
0 95.5 0 -0 0 -0 -0 0 -0 -0 0 -0 -2.9762 9.7813 32.879 -0 0 -0 -0 0 -0 -36.345 -63.696 -90.153 -18.922 -55.166 2.9512 -0 0 -0 -0 0 -0 -31.457 -18.574 -21.957 71.426 -78.049 18.76 -0 0 -0 -2.9165 -14.993 -7.0992 -2.9165 -14.993 -7.0992 -0 0 -0 -0 0 -0 -0 0 -0 -0 0 -0 -0 0 -0 -0 0 -0 -0 0 -0 -0 0 -0 -0 0 -0 -0 0 -0 -0 0 -0 -0 0 -0 
0 95.5 0 -0 0 -0 -0 0 -0 -0 0 -0 -3.6169 9.6526 32.685 -0 0 -0 -0 0 -0 -28.77 -62.815 -84.835 -31.371 -59.434 -11.376 -0 0 -0 -0 0 -0 -33.632 -17.794 -24.259 65.426 -78.133 12.449 -0 0 -0 -2.5901 -15.708 -6.9206 -2.5901 -15.708 -6.9206 -0 0 -0 -0 0 -0 -0 0 -0 -0 0 -0 -0 0 -0 -0 0 -0 -0 0 -0 -0 0 -0 -0 0 -0 -0 0 -0 -0 0 -0 -0 0 -0 
0 95.5 0 -0 0 -0 -0 0 -0 -0 0 -0 -4.7208 9.5441 32.85 -0 0 -0 -0 0 -0 -20.192 -62.22 -78.182 -46.335 -62.699 -26.248 -0 0 -0 -0 0 -0 -34.648 -16.822 -26.345 53.446 -79.361 -1.1594 -0 0 -0 -2.202 -16.519 -7.1948 -2.202 -16.519 -7.1948 -0 0 -0 -0 0 -0 -0 0 -0 -0 0 -0 -0 0 -0 -0 0 -0 -0 0 -0 -0 0 -0 -0 0 -0 -0 0 -0 -0 0 -0 -0 0 -0 
0 95.5 0 -0 0 -0 -0 0 -0 -0 0 -0 -5.6663 9.3439 33.108 -0 0 -0 -0 0 -0 -10.681 -60.953 -68.15 -63.584 -63.984 -40.525 -0 0 -0 -0 0 -0 -34.791 -15.648 -28.893 34.315 -80.248 -22.747 -0 0 -0 -1.9629 -17.118 -7.6982 -1.9629 -17.118 -7.6982 -0 0 -0 -0 0 -0 -0 0 -0 -0 0 -0 -0 0 -0 -0 0 -0 -0 0 -0 -0 0 -0 -0 0 -0 -0 0 -0 -0 0 -0 -0 0 -0 
0 95.5 0 -0 0 -0 -0 0 -0 -0 0 -0 -6.1665 9.4057 33.571 -0 0 -0 -0 0 -0 -2.7436 -57.735 -55.667 -78.451 -62.239 -50.737 -0 0 -0 -0 0 -0 -34.858 -14.224 -31.893 18.127 -79.988 -43.416 -0 0 -0 -2.0234 -17.453 -8.2901 -2.0234 -17.453 -8.2901 -0 0 -0 -0 0 -0 -0 0 -0 -0 0 -0 -0 0 -0 -0 0 -0 -0 0 -0 -0 0 -0 -0 0 -0 -0 0 -0 -0 0 -0 -0 0 -0 
0 95.5 0 -0 0 -0 -0 0 -0 -0 0 -0 -6.207 9.545 34.099 -0 0 -0 -0 0 -0 3.3671 -53.318 -42.426 -87.852 -59.825 -55.603 -0 0 -0 -0 0 -0 -34.672 -12.655 -34.075 12.698 -79.104 -54.229 -0 0 -0 -2.2488 -17.355 -8.7624 -2.2488 -17.355 -8.7624 -0 0 -0 -0 0 -0 -0 0 -0 -0 0 -0 -0 0 -0 -0 0 -0 -0 0 -0 -0 0 -0 -0 0 -0 -0 0 -0 -0 0 -0 -0 0 -0 
0 95.5 0 -0 0 -0 -0 0 -0 -0 0 -0 -6.5615 9.7263 34.876 -0 0 -0 -0 0 -0 8.5258 -48.299 -29.817 -94.171 -59.14 -58.931 -0 0 -0 -0 0 -0 -33.83 -11.282 -35.199 19.808 -78.323 -52.1 -0 0 -0 -2.3235 -17.132 -9.2154 -2.3235 -17.132 -9.2154 -0 0 -0 -0 0 -0 -0 0 -0 -0 0 -0 -0 0 -0 -0 0 -0 -0 0 -0 -0 0 -0 -0 0 -0 -0 0 -0 -0 0 -0 -0 0 -0 
